<svg xmlns="http://www.w3.org/2000/svg" version="1.1" xmlns:xlink="http://www.w3.org/1999/xlink" xmlns:svgjs="http://svgjs.dev/svgjs" width="1500" height="935" viewBox="0 0 1500 935"><g transform="matrix(1,0,0,1,-0.9090909090909918,186.81740829346086)"><svg viewBox="0 0 396 247" data-background-color="#ffffff" preserveAspectRatio="xMidYMid meet" height="935" width="1500" xmlns="http://www.w3.org/2000/svg" xmlns:xlink="http://www.w3.org/1999/xlink"><g id="tight-bounds" transform="matrix(1,0,0,1,0.2400000000000091,-0.09999999999999432)"><svg viewBox="0 0 395.52 247.2" height="247.2" width="395.52"><g><svg></svg></g><g><svg viewBox="0 0 395.52 247.2" height="247.2" width="395.52"><g transform="matrix(1,0,0,1,75.54432000000001,47.49505760720207)"><svg viewBox="0 0 244.43135999999996 152.20988478559585" height="152.20988478559585" width="244.43135999999996"><g><svg viewBox="0 0 245.65351679999995 152.97093420952382" height="152.20988478559585" width="244.43135999999996"><g><rect width="245.65351679999995" height="4.685297676278274" x="0" y="84.06610076098535" fill="#934baa" opacity="1" stroke-width="0" stroke="transparent" fill-opacity="1" class="rect-yte-0" data-fill-palette-color="primary" rx="1%" id="yte-0" data-palette-color="#934baa"></rect></g><g transform="matrix(1,0,0,1,0.6110783999999825,101.01657560029575)"><svg viewBox="0 0 244.43135999999998 51.95435860922808" height="51.95435860922808" width="244.43135999999998"><g id="textblocktransform"><svg viewBox="0 0 244.43135999999998 51.95435860922808" height="51.95435860922808" width="244.43135999999998" id="textblock"><g><svg viewBox="0 0 244.43135999999998 51.95435860922808" height="51.95435860922808" width="244.43135999999998"><g transform="matrix(1,0,0,1,0,0)"><svg width="244.43135999999998" viewBox="0.5 -37 232.88 48.6" height="51.95435860922808" data-palette-color="#934baa"><g class="wordmark-text-0" data-fill-palette-color="primary" id="text-0"><path d="M16 0L11.25 0 11.25-30.8 0.5-30.8 0.5-35 26.75-35 26.75-30.8 16-30.8 16 0ZM41.65 0.6L41.65 0.6Q36.05 0.6 32.77-2.98 29.5-6.55 29.5-13L29.5-13Q29.5-16.9 30.97-19.98 32.45-23.05 35.1-24.83 37.75-26.6 41.25-26.6L41.25-26.6Q45-26.6 47.47-24.98 49.95-23.35 51.2-20.6 52.45-17.85 52.45-14.55L52.45-14.55Q52.45-12.8 52.3-11.15L52.3-11.15 34.1-11.15Q34.55-7.5 36.65-5.45 38.75-3.4 42.2-3.4L42.2-3.4Q44.45-3.4 46.25-3.88 48.05-4.35 49.7-5.1L49.7-5.1 50.75-1.25Q48.95-0.45 46.7 0.08 44.45 0.6 41.65 0.6ZM34.05-14.8L34.05-14.8 48.3-14.8Q48.3-18.6 46.4-20.65 44.5-22.7 41.15-22.7L41.15-22.7Q38.25-22.7 36.35-20.68 34.45-18.65 34.05-14.8ZM62.95 0L58.45 0 58.45-26 62.8-26 62.8-20.35Q63.45-22 64.55-23.43 65.65-24.85 67.3-25.73 68.95-26.6 71.15-26.6L71.15-26.6Q71.9-26.6 72.65-26.53 73.4-26.45 73.9-26.3L73.9-26.3 72.55-21.65Q71.6-22.05 70.3-22.05L70.3-22.05Q68.45-22.05 66.77-21 65.1-19.95 64.02-17.75 62.95-15.55 62.95-12.15L62.95-12.15 62.95 0ZM90.09 0.6L90.09 0.6Q87.84 0.6 85.87-0.23 83.89-1.05 82.59-2.15L82.59-2.15 82.59 0 78.39 0 78.39-37 82.89-37 82.89-23.3Q83.89-24.45 85.82-25.53 87.74-26.6 90.39-26.6L90.39-26.6Q93.39-26.6 96.02-25.03 98.64-23.45 100.24-20.48 101.84-17.5 101.84-13.25L101.84-13.25Q101.84-10.15 100.84-7.6 99.84-5.05 98.17-3.23 96.49-1.4 94.39-0.4 92.29 0.6 90.09 0.6ZM88.89-3.4L88.89-3.4Q91.34-3.4 93.22-4.6 95.09-5.8 96.17-8 97.24-10.2 97.24-13.1L97.24-13.1Q97.24-16.1 96.17-18.25 95.09-20.4 93.32-21.55 91.54-22.7 89.39-22.7L89.39-22.7Q87.24-22.7 85.52-21.63 83.79-20.55 82.89-19.3L82.89-19.3 82.89-5.4Q84.04-4.5 85.59-3.95 87.14-3.4 88.89-3.4ZM118.04 0.6L118.04 0.6Q114.79 0.6 112.14-1.05 109.49-2.7 107.92-5.73 106.34-8.75 106.34-12.85L106.34-12.85Q106.34-16.75 107.92-19.85 109.49-22.95 112.27-24.78 115.04-26.6 118.64-26.6L118.64-26.6Q120.89-26.6 122.72-25.83 124.54-25.05 125.89-23.9L125.89-23.9 125.89-26 129.99-26 129.99-6.3Q129.99-4.4 130.92-3.83 131.84-3.25 132.94-3.25L132.94-3.25 131.99 0.25Q127.19 0.25 126.19-3.65L126.19-3.65Q125.04-2.05 123.07-0.73 121.09 0.6 118.04 0.6ZM119.04-3.4L119.04-3.4Q120.94-3.4 122.64-4.33 124.34-5.25 125.49-6.65L125.49-6.65 125.49-20.6Q124.14-21.55 122.52-22.13 120.89-22.7 119.09-22.7L119.09-22.7Q116.69-22.7 114.87-21.48 113.04-20.25 111.99-18.07 110.94-15.9 110.94-13L110.94-13Q110.94-10.2 111.99-8.03 113.04-5.85 114.89-4.63 116.74-3.4 119.04-3.4ZM143.44 0L138.94 0 138.94-26 143.29-26 143.29-21.65Q144.69-23.75 146.86-25.18 149.04-26.6 152.04-26.6L152.04-26.6Q156.44-26.6 158.61-23.95 160.79-21.3 160.79-16.95L160.79-16.95 160.79 0 156.29 0 156.29-16.45Q156.29-19.25 154.96-20.95 153.64-22.65 151.29-22.65L151.29-22.65Q148.99-22.65 146.94-21.03 144.89-19.4 143.44-17.2L143.44-17.2 143.44 0ZM178.09 11.6L178.09 11.6Q175.79 11.6 173.61 11.05 171.44 10.5 169.74 9.4L169.74 9.4 171.39 5.5Q172.59 6.45 174.19 7.08 175.79 7.7 178.09 7.7L178.09 7.7Q181.64 7.7 183.66 5.83 185.69 3.95 185.69-0.15L185.69-0.15 185.69-3.35Q184.69-2.15 182.81-1.07 180.94 0 178.34 0L178.34 0Q175.39 0 172.74-1.53 170.09-3.05 168.44-6 166.79-8.95 166.79-13.1L166.79-13.1Q166.79-17 168.41-20.05 170.04-23.1 172.79-24.85 175.54-26.6 178.84-26.6L178.84-26.6Q181.04-26.6 182.84-25.85 184.64-25.1 185.94-24L185.94-24 185.94-26 190.04-26 190.04-0.6Q190.04 3.7 188.54 6.4 187.04 9.1 184.36 10.35 181.69 11.6 178.09 11.6ZM179.34-4L179.34-4Q181.34-4 182.94-4.9 184.54-5.8 185.54-7L185.54-7 185.54-20.6Q184.44-21.4 182.89-22.05 181.34-22.7 179.29-22.7L179.29-22.7Q177.24-22.7 175.44-21.6 173.64-20.5 172.51-18.43 171.39-16.35 171.39-13.35L171.39-13.35Q171.39-10.5 172.51-8.4 173.64-6.3 175.44-5.15 177.24-4 179.34-4ZM203.03 0L198.28 0 198.28-35 203.03-35 203.03 0ZM216.03 0L211.53 0 211.53-26 215.88-26 215.88-21.65Q217.28-23.75 219.46-25.18 221.63-26.6 224.63-26.6L224.63-26.6Q229.03-26.6 231.21-23.95 233.38-21.3 233.38-16.95L233.38-16.95 233.38 0 228.88 0 228.88-16.45Q228.88-19.25 227.56-20.95 226.23-22.65 223.88-22.65L223.88-22.65Q221.58-22.65 219.53-21.03 217.48-19.4 216.03-17.2L216.03-17.2 216.03 0Z" fill="#934baa" data-fill-palette-color="primary"></path></g></svg></g></svg></g></svg></g></svg></g><g transform="matrix(1,0,0,1,61.6119155779378,0)"><svg viewBox="0 0 122.42968564412435 71.80092359795321" height="71.80092359795321" width="122.42968564412435"><g><svg xmlns="http://www.w3.org/2000/svg" xmlns:xlink="http://www.w3.org/1999/xlink" version="1.0" x="0" y="0" viewBox="5.228 23.319938347187794 89.53972843967627 52.5120616528122" enable-background="new 0 0 100 100" xml:space="preserve" height="71.80092359795321" width="122.42968564412435" class="icon-icon-0" data-fill-palette-color="accent" id="icon-0"><path d="M94.199 37.418A6.89 6.89 0 0 0 85.135 33.838L81.26 35.428 67.425 41.532 29.727 24.068A4.73 4.73 0 0 0 27.15 23.32 4.784 4.784 0 0 0 22.363 28.107C22.363 29.26 22.773 30.323 23.452 31.147L43.734 52.002 30.763 57.733 12.755 48.03A5.177 5.177 0 0 0 5.228 52.639C5.229 53.597 5.499 54.492 5.952 55.263L24.152 75.832 90.155 46.696 90.62 46.481C94.112 44.966 95.708 40.906 94.199 37.418M52.013 57.998A2.632 2.632 0 1 1 52.013 52.732 2.632 2.632 0 0 1 52.013 57.997M60.22 54.435A2.632 2.632 0 1 1 60.22 49.172 2.632 2.632 0 0 1 60.22 54.436M68.58 50.721A2.632 2.632 0 1 1 68.58 45.456 2.632 2.632 0 0 1 68.58 50.721" fill="#934baa" data-fill-palette-color="accent"></path></svg></g></svg></g><g></g></svg></g></svg></g><g><path d="M113.272 35.291A122.216 122.216 0 0 1 282.248 35.291L277.586 35.291A117.554 117.554 0 0 0 117.934 35.291L113.272 35.291M113.272 211.909A122.216 122.216 0 0 0 282.248 211.909L277.586 211.909A117.554 117.554 0 0 1 117.934 211.909L113.272 211.909" fill="#7b3194" stroke="transparent" data-fill-palette-color="tertiary"></path></g></svg></g><defs></defs></svg><rect width="395.52" height="247.2" fill="none" stroke="none" visibility="hidden"></rect></g></svg></g></svg>