<svg width="15" height="21" viewBox="0 0 15 21" fill="none" xmlns="http://www.w3.org/2000/svg">
<path d="M2 18V20" stroke="#4B1979" stroke-linecap="round"/>
<path d="M1 4.5H14C14.2761 4.5 14.5 4.72386 14.5 5V17C14.5 17.2761 14.2761 17.5 14 17.5H1C0.723858 17.5 0.5 17.2761 0.5 17V5C0.5 4.72386 0.723858 4.5 1 4.5Z" stroke="#4B1979"/>
<path d="M1 4.5H14C14.2761 4.5 14.5 4.72386 14.5 5V17C14.5 17.2761 14.2761 17.5 14 17.5H1C0.723858 17.5 0.5 17.2761 0.5 17V5C0.5 4.72386 0.723858 4.5 1 4.5Z" stroke="#4B1979"/>
<path d="M1 4.5H14C14.2761 4.5 14.5 4.72386 14.5 5V17C14.5 17.2761 14.2761 17.5 14 17.5H1C0.723858 17.5 0.5 17.2761 0.5 17V5C0.5 4.72386 0.723858 4.5 1 4.5Z" stroke="#4B1979"/>
<path d="M5 0.5H10C10.2761 0.5 10.5 0.723858 10.5 1V17C10.5 17.2761 10.2761 17.5 10 17.5H5C4.72386 17.5 4.5 17.2761 4.5 17V1C4.5 0.723858 4.72386 0.5 5 0.5Z" stroke="#4B1979"/>
<path d="M5 0.5H10C10.2761 0.5 10.5 0.723858 10.5 1V17C10.5 17.2761 10.2761 17.5 10 17.5H5C4.72386 17.5 4.5 17.2761 4.5 17V1C4.5 0.723858 4.72386 0.5 5 0.5Z" stroke="#4B1979"/>
<path d="M5 0.5H10C10.2761 0.5 10.5 0.723858 10.5 1V17C10.5 17.2761 10.2761 17.5 10 17.5H5C4.72386 17.5 4.5 17.2761 4.5 17V1C4.5 0.723858 4.72386 0.5 5 0.5Z" stroke="#4B1979"/>
<path d="M13 18V20" stroke="#4B1979" stroke-linecap="round"/>
</svg>
