<svg width="12" height="20" viewBox="0 0 12 20" fill="none" xmlns="http://www.w3.org/2000/svg">
<path d="M9 18H2C1.45 18 0.979002 17.804 0.587002 17.412C0.195002 17.02 -0.000664969 16.5493 1.69779e-06 16V5H2V16H9V18ZM5.5 4C4.95 4 4.479 3.804 4.087 3.412C3.695 3.02 3.49934 2.54934 3.5 2C3.5 1.45 3.696 0.979002 4.088 0.587002C4.48 0.195002 4.95067 -0.000664969 5.5 1.69779e-06C6.05 1.69779e-06 6.521 0.196002 6.913 0.588002C7.305 0.980002 7.50067 1.45067 7.5 2C7.5 2.55 7.304 3.021 6.912 3.413C6.52 3.805 6.04934 4.00067 5.5 4ZM10 20V15H5C4.45 15 3.979 14.804 3.587 14.412C3.195 14.02 2.99934 13.5493 3 13V7.5C3 6.8 3.24167 6.20833 3.725 5.725C4.20834 5.24167 4.8 5 5.5 5C6.2 5 6.79167 5.24167 7.275 5.725C7.75833 6.20833 8 6.8 8 7.5V12H10C10.55 12 11.021 12.196 11.413 12.588C11.805 12.98 12.0007 13.4507 12 14V20H10Z" fill="black" fill-opacity="0.6"/>
</svg>
