<svg width="34" height="11" viewBox="0 0 34 11" fill="none" xmlns="http://www.w3.org/2000/svg">
<path d="M5.594 0.742V1.778H1.352V5.068H4.796V6.104H1.352V10.5H0.0780001V0.742H5.594ZM8.40669 4.074C8.63069 3.63533 8.94802 3.29467 9.35869 3.052C9.77869 2.80933 10.2874 2.688 10.8847 2.688V4.004H10.5487C9.12069 4.004 8.40669 4.77867 8.40669 6.328V10.5H7.13269V2.828H8.40669V4.074ZM15.7013 10.626C14.9827 10.626 14.3293 10.4627 13.7413 10.136C13.1627 9.80933 12.7053 9.34733 12.3693 8.75C12.0427 8.14333 11.8793 7.44333 11.8793 6.65C11.8793 5.866 12.0473 5.17533 12.3833 4.578C12.7287 3.97133 13.1953 3.50933 13.7833 3.192C14.3713 2.86533 15.0293 2.702 15.7573 2.702C16.4853 2.702 17.1433 2.86533 17.7313 3.192C18.3193 3.50933 18.7813 3.96667 19.1173 4.564C19.4627 5.16133 19.6353 5.85667 19.6353 6.65C19.6353 7.44333 19.458 8.14333 19.1033 8.75C18.758 9.34733 18.2867 9.80933 17.6893 10.136C17.092 10.4627 16.4293 10.626 15.7013 10.626ZM15.7013 9.506C16.1587 9.506 16.588 9.39867 16.9893 9.184C17.3907 8.96933 17.7127 8.64733 17.9553 8.218C18.2073 7.78867 18.3333 7.266 18.3333 6.65C18.3333 6.034 18.212 5.51133 17.9693 5.082C17.7267 4.65267 17.4093 4.33533 17.0173 4.13C16.6253 3.91533 16.2007 3.808 15.7433 3.808C15.2767 3.808 14.8473 3.91533 14.4553 4.13C14.0727 4.33533 13.7647 4.65267 13.5313 5.082C13.298 5.51133 13.1813 6.034 13.1813 6.65C13.1813 7.27533 13.2933 7.80267 13.5173 8.232C13.7507 8.66133 14.0587 8.98333 14.4413 9.198C14.824 9.40333 15.244 9.506 15.7013 9.506ZM30.5364 2.688C31.1338 2.688 31.6658 2.814 32.1324 3.066C32.5991 3.30867 32.9678 3.67733 33.2384 4.172C33.5091 4.66667 33.6444 5.26867 33.6444 5.978V10.5H32.3844V6.16C32.3844 5.39467 32.1931 4.81133 31.8104 4.41C31.4371 3.99933 30.9284 3.794 30.2844 3.794C29.6218 3.794 29.0944 4.00867 28.7024 4.438C28.3104 4.858 28.1144 5.46933 28.1144 6.272V10.5H26.8544V6.16C26.8544 5.39467 26.6631 4.81133 26.2804 4.41C25.9071 3.99933 25.3984 3.794 24.7544 3.794C24.0918 3.794 23.5644 4.00867 23.1724 4.438C22.7804 4.858 22.5844 5.46933 22.5844 6.272V10.5H21.3104V2.828H22.5844V3.934C22.8364 3.53267 23.1724 3.22467 23.5924 3.01C24.0218 2.79533 24.4931 2.688 25.0064 2.688C25.6504 2.688 26.2198 2.83267 26.7144 3.122C27.2091 3.41133 27.5778 3.836 27.8204 4.396C28.0351 3.85467 28.3898 3.43467 28.8844 3.136C29.3791 2.83733 29.9298 2.688 30.5364 2.688Z" fill="#8A8A8A"/>
</svg>
